<svg width="57" height="41" viewBox="0 0 57 41" fill="none" xmlns="http://www.w3.org/2000/svg">
<g clip-path="url(#clip0_46_11)">
<path d="M7.60849 34V7.81818H18.4238C20.3841 7.81818 22.0758 8.2017 23.4991 8.96875C24.9309 9.72727 26.0346 10.7884 26.8102 12.152C27.5858 13.5071 27.9735 15.0838 27.9735 16.8821C27.9735 18.6889 27.5772 20.2699 26.7846 21.625C26.0005 22.9716 24.8798 24.0156 23.4224 24.7571C21.965 25.4986 20.2349 25.8693 18.2321 25.8693H11.5588V20.8835H17.0559C18.0105 20.8835 18.8074 20.7173 19.4466 20.3849C20.0943 20.0526 20.5843 19.5881 20.9167 18.9915C21.2491 18.3864 21.4153 17.6832 21.4153 16.8821C21.4153 16.0724 21.2491 15.3736 20.9167 14.7855C20.5843 14.1889 20.0943 13.7287 19.4466 13.4048C18.7988 13.081 18.002 12.919 17.0559 12.919H13.9366V34H7.60849Z" fill="white"/>
<path d="M53.3755 7.81818V34H48.0062L37.5872 18.8892H37.421V34H31.0929V7.81818H36.5389L46.8429 22.9034H47.0602V7.81818H53.3755Z" fill="#FFF500"/>
<path d="M32.823 10.0199C32.7259 10.0199 32.6426 9.99006 32.573 9.9304C32.5034 9.87074 32.4499 9.78527 32.4125 9.67401C32.3755 9.56226 32.3571 9.4285 32.3571 9.27273C32.3571 9.11742 32.3758 8.9839 32.4132 8.87216C32.4506 8.76042 32.5038 8.67472 32.573 8.61506C32.6426 8.5554 32.7259 8.52557 32.823 8.52557C32.92 8.52557 33.0031 8.5554 33.0723 8.61506C33.1419 8.67472 33.1954 8.76042 33.2328 8.87216C33.2702 8.9839 33.2889 9.11742 33.2889 9.27273C33.2889 9.4285 33.2702 9.56226 33.2328 9.67401C33.1958 9.78527 33.1426 9.87074 33.073 9.9304C33.0034 9.99006 32.92 10.0199 32.823 10.0199ZM32.823 9.9375C32.9409 9.9375 33.0334 9.87902 33.1007 9.76207C33.1679 9.64465 33.2015 9.48153 33.2015 9.27273C33.2015 9.13352 33.1861 9.0142 33.1554 8.91477C33.1251 8.81534 33.0817 8.73935 33.0254 8.68679C32.969 8.63376 32.9016 8.60724 32.823 8.60724C32.7051 8.60724 32.6125 8.66596 32.5453 8.78338C32.478 8.9008 32.4444 9.06392 32.4444 9.27273C32.4444 9.41193 32.4596 9.53125 32.4899 9.63068C32.5202 9.72964 32.5635 9.80563 32.6199 9.85866C32.6767 9.91122 32.7444 9.9375 32.823 9.9375ZM33.9854 8.54545V10H33.8967V8.6392H33.8881L33.5614 8.85582V8.76065L33.8853 8.54545H33.9854ZM32.823 12.0199C32.7259 12.0199 32.6426 11.9901 32.573 11.9304C32.5034 11.8707 32.4499 11.7853 32.4125 11.674C32.3755 11.5623 32.3571 11.4285 32.3571 11.2727C32.3571 11.1174 32.3758 10.9839 32.4132 10.8722C32.4506 10.7604 32.5038 10.6747 32.573 10.6151C32.6426 10.5554 32.7259 10.5256 32.823 10.5256C32.92 10.5256 33.0031 10.5554 33.0723 10.6151C33.1419 10.6747 33.1954 10.7604 33.2328 10.8722C33.2702 10.9839 33.2889 11.1174 33.2889 11.2727C33.2889 11.4285 33.2702 11.5623 33.2328 11.674C33.1958 11.7853 33.1426 11.8707 33.073 11.9304C33.0034 11.9901 32.92 12.0199 32.823 12.0199ZM32.823 11.9375C32.9409 11.9375 33.0334 11.879 33.1007 11.7621C33.1679 11.6446 33.2015 11.4815 33.2015 11.2727C33.2015 11.1335 33.1861 11.0142 33.1554 10.9148C33.1251 10.8153 33.0817 10.7393 33.0254 10.6868C32.969 10.6338 32.9016 10.6072 32.823 10.6072C32.7051 10.6072 32.6125 10.666 32.5453 10.7834C32.478 10.9008 32.4444 11.0639 32.4444 11.2727C32.4444 11.4119 32.4596 11.5312 32.4899 11.6307C32.5202 11.7296 32.5635 11.8056 32.6199 11.8587C32.6767 11.9112 32.7444 11.9375 32.823 11.9375ZM33.9854 10.5455V12H33.8967V10.6392H33.8881L33.5614 10.8558V10.7607L33.8853 10.5455H33.9854ZM32.7804 12.5455V14H32.6916V12.6392H32.6831L32.3564 12.8558V12.7607L32.6802 12.5455H32.7804ZM33.6765 14.0199C33.5794 14.0199 33.4961 13.9901 33.4265 13.9304C33.3569 13.8707 33.3034 13.7853 33.266 13.674C33.229 13.5623 33.2106 13.4285 33.2106 13.2727C33.2106 13.1174 33.2293 12.9839 33.2667 12.8722C33.3041 12.7604 33.3574 12.6747 33.4265 12.6151C33.4961 12.5554 33.5794 12.5256 33.6765 12.5256C33.7736 12.5256 33.8567 12.5554 33.9258 12.6151C33.9954 12.6747 34.0489 12.7604 34.0863 12.8722C34.1237 12.9839 34.1424 13.1174 34.1424 13.2727C34.1424 13.4285 34.1237 13.5623 34.0863 13.674C34.0494 13.7853 33.9961 13.8707 33.9265 13.9304C33.8569 13.9901 33.7736 14.0199 33.6765 14.0199ZM33.6765 13.9375C33.7944 13.9375 33.887 13.879 33.9542 13.7621C34.0214 13.6446 34.055 13.4815 34.055 13.2727C34.055 13.1335 34.0397 13.0142 34.0089 12.9148C33.9786 12.8153 33.9353 12.7393 33.8789 12.6868C33.8226 12.6338 33.7551 12.6072 33.6765 12.6072C33.5586 12.6072 33.466 12.666 33.3988 12.7834C33.3316 12.9008 33.2979 13.0639 33.2979 13.2727C33.2979 13.4119 33.3131 13.5312 33.3434 13.6307C33.3737 13.7296 33.417 13.8056 33.4734 13.8587C33.5302 13.9112 33.5979 13.9375 33.6765 13.9375ZM32.9561 14.5455V16H32.8674V14.6392H32.8588L32.5321 14.8558V14.7607L32.856 14.5455H32.9561ZM33.8097 14.5455V16H33.7209V14.6392H33.7124L33.3857 14.8558V14.7607L33.7095 14.5455H33.8097ZM32.6472 18.0199C32.5501 18.0199 32.4668 17.9901 32.3972 17.9304C32.3276 17.8707 32.2741 17.7853 32.2367 17.674C32.1998 17.5623 32.1813 17.4285 32.1813 17.2727C32.1813 17.1174 32.2 16.9839 32.2374 16.8722C32.2748 16.7604 32.3281 16.6747 32.3972 16.6151C32.4668 16.5554 32.5501 16.5256 32.6472 16.5256C32.7443 16.5256 32.8274 16.5554 32.8965 16.6151C32.9661 16.6747 33.0196 16.7604 33.057 16.8722C33.0944 16.9839 33.1131 17.1174 33.1131 17.2727C33.1131 17.4285 33.0944 17.5623 33.057 17.674C33.0201 17.7853 32.9668 17.8707 32.8972 17.9304C32.8276 17.9901 32.7443 18.0199 32.6472 18.0199ZM32.6472 17.9375C32.7651 17.9375 32.8577 17.879 32.9249 17.7621C32.9921 17.6446 33.0257 17.4815 33.0257 17.2727C33.0257 17.1335 33.0104 17.0142 32.9796 16.9148C32.9493 16.8153 32.906 16.7393 32.8496 16.6868C32.7933 16.6338 32.7258 16.6072 32.6472 16.6072C32.5293 16.6072 32.4367 16.666 32.3695 16.7834C32.3023 16.9008 32.2686 17.0639 32.2686 17.2727C32.2686 17.4119 32.2838 17.5312 32.3141 17.6307C32.3444 17.7296 32.3877 17.8056 32.4441 17.8587C32.5009 17.9112 32.5686 17.9375 32.6472 17.9375ZM33.8523 18.0199C33.7552 18.0199 33.6719 17.9901 33.6023 17.9304C33.5327 17.8707 33.4792 17.7853 33.4418 17.674C33.4048 17.5623 33.3864 17.4285 33.3864 17.2727C33.3864 17.1174 33.4051 16.9839 33.4425 16.8722C33.4799 16.7604 33.5331 16.6747 33.6023 16.6151C33.6719 16.5554 33.7552 16.5256 33.8523 16.5256C33.9493 16.5256 34.0324 16.5554 34.1016 16.6151C34.1712 16.6747 34.2247 16.7604 34.2621 16.8722C34.2995 16.9839 34.3182 17.1174 34.3182 17.2727C34.3182 17.4285 34.2995 17.5623 34.2621 17.674C34.2251 17.7853 34.1719 17.8707 34.1023 17.9304C34.0327 17.9901 33.9493 18.0199 33.8523 18.0199ZM33.8523 17.9375C33.9702 17.9375 34.0627 17.879 34.13 17.7621C34.1972 17.6446 34.2308 17.4815 34.2308 17.2727C34.2308 17.1335 34.2154 17.0142 34.1847 16.9148C34.1544 16.8153 34.111 16.7393 34.0547 16.6868C33.9983 16.6338 33.9309 16.6072 33.8523 16.6072C33.7344 16.6072 33.6418 16.666 33.5746 16.7834C33.5073 16.9008 33.4737 17.0639 33.4737 17.2727C33.4737 17.4119 33.4889 17.5312 33.5192 17.6307C33.5495 17.7296 33.5928 17.8056 33.6491 17.8587C33.706 17.9112 33.7737 17.9375 33.8523 17.9375ZM32.823 20.0199C32.7259 20.0199 32.6426 19.9901 32.573 19.9304C32.5034 19.8707 32.4499 19.7853 32.4125 19.674C32.3755 19.5623 32.3571 19.4285 32.3571 19.2727C32.3571 19.1174 32.3758 18.9839 32.4132 18.8722C32.4506 18.7604 32.5038 18.6747 32.573 18.6151C32.6426 18.5554 32.7259 18.5256 32.823 18.5256C32.92 18.5256 33.0031 18.5554 33.0723 18.6151C33.1419 18.6747 33.1954 18.7604 33.2328 18.8722C33.2702 18.9839 33.2889 19.1174 33.2889 19.2727C33.2889 19.4285 33.2702 19.5623 33.2328 19.674C33.1958 19.7853 33.1426 19.8707 33.073 19.9304C33.0034 19.9901 32.92 20.0199 32.823 20.0199ZM32.823 19.9375C32.9409 19.9375 33.0334 19.879 33.1007 19.7621C33.1679 19.6446 33.2015 19.4815 33.2015 19.2727C33.2015 19.1335 33.1861 19.0142 33.1554 18.9148C33.1251 18.8153 33.0817 18.7393 33.0254 18.6868C32.969 18.6338 32.9016 18.6072 32.823 18.6072C32.7051 18.6072 32.6125 18.666 32.5453 18.7834C32.478 18.9008 32.4444 19.0639 32.4444 19.2727C32.4444 19.4119 32.4596 19.5312 32.4899 19.6307C32.5202 19.7296 32.5635 19.8056 32.6199 19.8587C32.6767 19.9112 32.7444 19.9375 32.823 19.9375ZM33.9854 18.5455V20H33.8967V18.6392H33.8881L33.5614 18.8558V18.7607L33.8853 18.5455H33.9854Z" fill="black"/>
</g>
<defs>
<clipPath id="clip0_46_11">
<rect width="57" height="41" fill="white"/>
</clipPath>
</defs>
</svg>
